PathFileType	4	(X/Y/Z)	/Users/itak/Documents/Research/Walk-IL/dataset/trc/00521_00183.trc
DataRate	CameraRate	NumFrames	NumMarkers	Units	OrigDataRate	OrigDataStartFrame	OrigNumFrames
100.000000	100.000000	4	53	mm	100.000000	62	497
Frame#	Time	RPSI			LPSI			L3			STRN			T10			C7			CLAV			RBAK			LBAK			LSHO			LUPA			LAEL			LAOL			LWTS			LWPS			LFRA			LIFD			LHPS			LHTS			RSHO			RUPA			RAEL			RAOL			RWTS			RWPS			RFRA			RIFD			RHTS			RHPS			RBHD			LFHD			RFHD			LBHD			LHIP			RHIP			RASI			LASI			LKNE			LTHI			LANK			LTIP			LTOE			LMT1			LMT5			LHEE			RKNE			RTHI			RANK			RTIP			RTOE			RMT1			RMT5			RHEE			
		X1	Y1	Z1	X2	Y2	Z2	X3	Y3	Z3	X4	Y4	Z4	X5	Y5	Z5	X6	Y6	Z6	X7	Y7	Z7	X8	Y8	Z8	X9	Y9	Z9	X10	Y10	Z10	X11	Y11	Z11	X12	Y12	Z12	X13	Y13	Z13	X14	Y14	Z14	X15	Y15	Z15	X16	Y16	Z16	X17	Y17	Z17	X18	Y18	Z18	X19	Y19	Z19	X20	Y20	Z20	X21	Y21	Z21	X22	Y22	Z22	X23	Y23	Z23	X24	Y24	Z24	X25	Y25	Z25	X26	Y26	Z26	X27	Y27	Z27	X28	Y28	Z28	X29	Y29	Z29	X30	Y30	Z30	X31	Y31	Z31	X32	Y32	Z32	X33	Y33	Z33	X34	Y34	Z34	X35	Y35	Z35	X36	Y36	Z36	X37	Y37	Z37	X38	Y38	Z38	X39	Y39	Z39	X40	Y40	Z40	X41	Y41	Z41	X42	Y42	Z42	X43	Y43	Z43	X44	Y44	Z44	X45	Y45	Z45	X46	Y46	Z46	X47	Y47	Z47	X48	Y48	Z48	X49	Y49	Z49	X50	Y50	Z50	X51	Y51	Z51	X52	Y52	Z52	X53	Y53	Z53	

63	0.62	-1152.390747070312	971.5692138671875	-462.4219055175781	-1127.070068359375	971.6249389648438	-583.310302734375	-1141.970825195312	1039.691772460938	-527.5966796875	-913.4249267578125	1197.18212890625	-498.1589965820312	-1149.863647460938	1144.81982421875	-524.1709594726562	-1094.061401367188	1372.640747070312	-511.1195983886719	-944.4459228515625	1294.135131835938	-499.8611145019531	-1156.23095703125	1251.687622070312	-433.8836059570312	-1112.57275390625	1320.745727539062	-601.3028564453125	-1011.086059570312	1368.412109375	-664.4234619140625	-1022.869689941406	1244.924682617188	-728.8541259765625	-1022.299377441406	1036.277709960938	-762.2587280273438	-1096.28173828125	1028.728759765625	-695.3277587890625	-944.0242919921875	844.67724609375	-731.109375	-1024.435791015625	811.80615234375	-771.1500854492188	-1008.699523925781	950.614501953125	-767.7039794921875	-945.1693115234375	687.776611328125	-727.0155029296875	-1000.271362304688	757.8692626953125	-769.314208984375	-937.1044921875	767.6766967773438	-753.3021240234375	-1056.29638671875	1363.330810546875	-358.8660278320312	-1082.4951171875	1296.460693359375	-305.6915893554688	-1101.1728515625	1029.900268554688	-266.8067016601562	-1140.902099609375	1013.040588378906	-317.0574340820312	-1000.415832519531	827.2191162109375	-261.1446228027344	-1087.124877929688	803.30517578125	-242.9653930664062	-1101.913940429688	975.4588623046875	-259.1890258789062	-1002.433837890625	668.0565795898438	-250.3811645507812	-996.4887084960938	736.11474609375	-230.4195404052734	-1066.699462890625	733.5733642578125	-233.3234558105469	-1062.35302734375	1522.0234375	-414.7544860839844	-909.8939208984375	1587.244018554688	-527.4052124023438	-935.2996215820312	1574.430297851562	-403.3255004882812	-1044.542114257812	1534.506591796875	-573.059326171875	-1001.67236328125	892.9595336914062	-694.1209106445312	-1075.826416015625	869.1781616210938	-320.1642761230469	-964.0128784179688	911.3226928710938	-369.3476867675781	-922.2525024414062	923.6881103515625	-607.5831298828125	-1018.172668457031	472.3397827148438	-641.7337036132812	-993.1173706054688	628.4461669921875	-667.2033081054688	-1145.0576171875	52.10511779785156	-631.0060424804688	-1058.890258789062	325.3125305175781	-641.728759765625	-959.99267578125	37.15624237060547	-538.7597045898438	-1040.367797851562	43.27620697021484	-519.248779296875	-1033.932495117188	46.97364807128906	-619.819580078125	-1202.169677734375	48.68924713134766	-575.782470703125	-1057.81982421875	483.1516418457031	-343.0439758300781	-1050.690063476562	740.6351318359375	-315.7914428710938	-1181.383056640625	57.45356750488281	-354.9033508300781	-1070.248046875	336.5164489746094	-351.9869384765625	-979.8150634765625	43.54822540283203	-372.0831298828125	-1039.89111328125	48.17431259155273	-417.9285583496094	-1072.136962890625	47.26602935791016	-325.4232482910156	-1229.190307617188	52.47789001464844	-407.9637145996094	
64	0.63	-1151.32470703125	971.9439697265625	-463.8855895996094	-1126.024047851562	971.8203735351562	-584.7506713867188	-1140.50244140625	1040.15185546875	-528.9512939453125	-911.942138671875	1197.163818359375	-499.332275390625	-1147.949951171875	1145.128540039062	-525.3789672851562	-1092.3671875	1372.93798828125	-512.1742553710938	-942.840087890625	1294.097045898438	-500.9231567382812	-1154.615478515625	1251.946533203125	-435.0625610351562	-1110.879760742188	1321.135620117188	-602.43115234375	-1009.268676757812	1368.709228515625	-665.427978515625	-1020.98291015625	1245.308349609375	-730.0111083984375	-1020.498229980469	1036.671508789062	-763.6925048828125	-1094.557495117188	1029.093872070312	-696.856201171875	-942.4791259765625	845.0035400390625	-733.02685546875	-1023.026611328125	812.2798461914062	-772.9619750976562	-1007.006225585938	950.9913330078125	-769.2957763671875	-943.6453857421875	688.0742797851562	-729.5399780273438	-998.865234375	758.343505859375	-771.4017944335938	-935.6046142578125	768.1895751953125	-755.592041015625	-1054.562133789062	1363.444091796875	-359.9359741210938	-1080.852783203125	1296.604614257812	-306.7605895996094	-1100.065551757812	1030.07666015625	-268.0150451660156	-1139.835693359375	1013.349548339844	-318.2685546875	-1000.031066894531	826.9837646484375	-262.5581665039062	-1086.82177734375	803.3372192382812	-244.4333190917969	-1100.9619140625	975.64697265625	-260.4347534179688	-1002.650817871094	667.7613525390625	-252.2308349609375	-996.4635009765625	735.7887573242188	-232.0864410400391	-1066.6826171875	733.5081787109375	-234.9586639404297	-1060.424560546875	1522.334838867188	-415.7472534179688	-907.591064453125	1586.988403320312	-528.1769409179688	-933.2171020507812	1574.271118164062	-404.1244812011719	-1042.366333007812	1534.764892578125	-574.0363159179688	-1000.785583496094	892.9053344726562	-695.49365234375	-1074.304931640625	869.7013549804688	-321.2630004882812	-962.9342651367188	911.6259155273438	-370.7735900878906	-921.3251342773438	923.5859375	-609.0123291015625	-1018.049499511719	472.2962036132812	-642.728271484375	-992.8352661132812	628.32666015625	-668.3976440429688	-1145.070190429688	52.17814636230469	-630.991455078125	-1058.852783203125	325.3053588867188	-642.3165283203125	-959.9537963867188	37.14572143554688	-538.839111328125	-1040.430053710938	43.26231002807617	-519.3294067382812	-1033.801513671875	46.83071517944336	-619.9088745117188	-1202.13818359375	48.84233474731445	-575.7611083984375	-1057.143432617188	483.5259704589844	-343.9035034179688	-1050.067504882812	741.1471557617188	-316.8272399902344	-1181.22119140625	58.037109375	-355.1156616210938	-1069.6015625	336.8971862792969	-352.6851806640625	-979.6651000976562	43.53926467895508	-372.1531066894531	-1039.768920898438	48.22027206420898	-418.0080261230469	-1072.012329101562	47.64059829711914	-325.589111328125	-1229.014404296875	53.07213592529297	-408.1750793457031	
65	0.64	-1150.235473632812	972.3964233398438	-465.3396606445312	-1124.938110351562	972.0518798828125	-586.1759643554688	-1139.024780273438	1040.5703125	-530.2957153320312	-910.5054931640625	1197.176635742188	-500.51171875	-1146.109375	1145.402099609375	-526.6214599609375	-1090.760620117188	1373.206420898438	-513.2179565429688	-941.29443359375	1294.095581054688	-501.9852600097656	-1153.082763671875	1252.155395507812	-436.2721252441406	-1109.27099609375	1321.519165039062	-603.5593872070312	-1007.539245605469	1369.028686523438	-666.421875	-1019.1943359375	1245.7080078125	-731.1624145507812	-1018.741516113281	1037.068481445312	-765.0791625976562	-1092.863647460938	1029.46826171875	-698.2937622070312	-940.9338989257812	845.3580932617188	-734.9340209960938	-1021.653869628906	812.7425537109375	-774.6640014648438	-1005.384582519531	951.3692016601562	-770.8474731445312	-942.0694580078125	688.4020385742188	-732.00927734375	-997.46826171875	758.8348388671875	-773.392822265625	-934.1172485351562	768.7389526367188	-757.8609619140625	-1052.939453125	1363.524169921875	-360.9922180175781	-1079.310668945312	1296.69384765625	-307.8499450683594	-1098.983154296875	1030.206665039062	-269.212890625	-1138.767333984375	1013.599060058594	-319.48583984375	-999.6294555664062	826.7091064453125	-263.9548950195312	-1086.509887695312	803.3336181640625	-245.8856353759766	-1100.017578125	975.7852783203125	-261.6706848144531	-1002.863220214844	667.4185791015625	-254.0925445556641	-996.4400024414062	735.4183349609375	-233.7359619140625	-1066.655151367188	733.4133911132812	-236.6000518798828	-1058.532104492188	1522.680419921875	-416.7251281738281	-905.3082885742188	1586.701049804688	-528.9445190429688	-931.1495971679688	1574.079711914062	-404.9224243164062	-1040.261352539062	1535.050415039062	-574.9921264648438	-999.8106689453125	892.8535766601562	-696.8052978515625	-1072.93505859375	870.28564453125	-322.3685913085938	-961.8764038085938	911.9381103515625	-372.1281433105469	-920.37255859375	923.4547119140625	-610.3565063476562	-1017.876953125	472.2371215820312	-643.6813354492188	-992.4913940429688	628.1941528320312	-669.5457153320312	-1145.08984375	52.24932861328125	-630.9971923828125	-1058.819580078125	325.2907104492188	-642.910888671875	-959.9221801757812	37.13877105712891	-538.9108276367188	-1040.529418945312	43.24644088745117	-519.4287719726562	-1033.675659179688	46.68620681762695	-620.0079345703125	-1202.11376953125	48.99695587158203	-575.7551879882812	-1056.824462890625	483.9312438964844	-344.71533203125	-1049.437622070312	741.7228393554688	-317.7467956542969	-1181.093872070312	58.52959442138672	-355.2995910644531	-1069.265625	337.3096008300781	-353.3151550292969	-979.5478515625	43.55195236206055	-372.2048950195312	-1039.681274414062	48.28853607177734	-418.0724182128906	-1071.934448242188	47.99794769287109	-325.7291564941406	-1228.894287109375	53.55321884155273	-408.3362731933594	
66	0.65	-1149.14501953125	972.8981323242188	-466.7585754394531	-1123.829711914062	972.3052978515625	-587.56787109375	-1137.554931640625	1040.94580078125	-531.6135864257812	-909.114501953125	1197.2099609375	-501.6930847167969	-1144.371459960938	1145.640502929688	-527.8836059570312	-1089.232788085938	1373.442016601562	-514.2501831054688	-939.8041381835938	1294.125732421875	-503.0493774414062	-1151.634887695312	1252.32275390625	-437.5015258789062	-1107.74267578125	1321.889770507812	-604.6842041015625	-1005.897399902344	1369.361572265625	-667.4075927734375	-1017.504577636719	1246.109985351562	-732.3062744140625	-1017.046447753906	1037.467041015625	-766.422607421875	-1091.213256835938	1029.841796875	-699.643310546875	-939.3997192382812	845.7291870117188	-736.8232421875	-1020.32177734375	813.1923828125	-776.2554321289062	-1003.843688964844	951.7471923828125	-772.3590698242188	-940.4406127929688	688.7645263671875	-734.3880615234375	-996.0881958007812	759.3277587890625	-775.2763061523438	-932.6544189453125	769.29443359375	-760.0792846679688	-1051.422119140625	1363.5693359375	-362.0342407226562	-1077.865600585938	1296.72802734375	-308.9587707519531	-1097.935668945312	1030.292236328125	-270.4118957519531	-1137.707641601562	1013.789489746094	-320.7216491699219	-999.2139282226562	826.4102172851562	-265.3287048339844	-1086.187622070312	803.2985229492188	-247.3187713623047	-1099.090454101562	975.8739013671875	-262.9075012207031	-1003.052429199219	667.049072265625	-255.9242706298828	-996.4068603515625	735.021484375	-235.3436737060547	-1066.608764648438	733.2990112304688	-238.2268676757812	-1056.68408203125	1523.040161132812	-417.6864929199219	-903.0576171875	1586.393432617188	-529.7019653320312	-929.1101684570312	1573.857177734375	-405.713134765625	-1038.224365234375	1535.357299804688	-575.926513671875	-998.762451171875	892.8050537109375	-698.0416870117188	-1071.735107421875	870.8837280273438	-323.4729614257812	-960.85888671875	912.2365112304688	-373.40283203125	-919.3908081054688	923.298583984375	-611.6026611328125	-1017.642272949219	472.1598510742188	-644.578369140625	-992.0883178710938	628.0595703125	-670.6375732421875	-1145.109619140625	52.31525421142578	-631.0220947265625	-1058.771362304688	325.2687072753906	-643.4993896484375	-959.8960571289062	37.13375854492188	-538.9747314453125	-1040.655029296875	43.2318000793457	-519.5428466796875	-1033.565063476562	46.53882598876953	-620.1171875	-1202.093017578125	49.15101623535156	-575.767578125	-1056.830688476562	484.3496398925781	-345.4719848632812	-1048.742919921875	742.3384399414062	-318.5677795410156	-1180.997924804688	58.93071365356445	-355.4590148925781	-1069.219604492188	337.7384033203125	-353.8734741210938	-979.4616088867188	43.5828742980957	-372.2397155761719	-1039.623168945312	48.3730583190918	-418.1245727539062	-1071.899169921875	48.33099365234375	-325.8446655273438	-1228.8271484375	53.92612838745117	-408.4576721191406	
